<svg width="528" height="528" viewBox="0 0 528 528" fill="none" xmlns="http://www.w3.org/2000/svg">
<rect width="528" height="528" fill="transparent"/>
<path fill-rule="evenodd" clip-rule="evenodd" d="M195.568 353.652V363H235.092V353.652H221.152V317.9H197.618V327.166H211.312V353.652H195.568ZM210.492 308.798C211.695 309.837 213.335 310.356 215.412 310.356C217.489 310.356 219.129 309.837 220.332 308.798C221.535 307.705 222.136 306.256 222.136 304.452C222.136 302.648 221.535 301.227 220.332 300.188C219.129 299.095 217.489 298.548 215.412 298.548C213.335 298.548 211.695 299.095 210.492 300.188C209.289 301.227 208.688 302.648 208.688 304.452C208.688 306.256 209.289 307.705 210.492 308.798ZM269.992 363C267.04 363 264.443 362.399 262.202 361.196C260.015 359.993 258.293 358.299 257.036 356.112C255.779 353.871 255.15 351.301 255.15 348.404V312.406H240.718V303.14H265.4V348.404C265.4 350.044 265.865 351.356 266.794 352.34C267.778 353.269 269.09 353.734 270.73 353.734H284.342V363H269.992ZM406.754 363.82C402.271 363.82 398.636 362.262 395.848 359.146C393.114 356.03 391.748 351.848 391.748 346.6V334.382C391.748 329.079 393.114 324.87 395.848 321.754C398.581 318.638 402.216 317.08 406.754 317.08C410.471 317.08 413.423 318.146 415.61 320.278C417.299 321.882 418.335 323.96 418.72 326.51H418.972L418.644 315.768V303.14H428.894V363H418.89V354.39H418.72C418.337 356.952 417.3 359.056 415.61 360.704C413.423 362.781 410.471 363.82 406.754 363.82ZM410.362 354.964C412.986 354.964 415.008 354.199 416.43 352.668C417.906 351.083 418.644 348.896 418.644 346.108V334.792C418.644 332.004 417.906 329.845 416.43 328.314C415.008 326.729 412.986 325.936 410.362 325.936C407.738 325.936 405.688 326.701 404.212 328.232C402.736 329.763 401.998 331.949 401.998 334.792V346.108C401.998 348.951 402.736 351.137 404.212 352.668C405.688 354.199 407.738 354.964 410.362 354.964ZM356.438 363.82C351.791 363.82 348.128 362.59 345.45 360.13C342.771 357.67 341.432 354.363 341.432 350.208C341.432 345.78 342.908 342.363 345.86 339.958C348.812 337.553 352.994 336.35 358.406 336.35H369.64V332.496C369.64 330.309 368.929 328.615 367.508 327.412C366.086 326.155 364.146 325.526 361.686 325.526C359.445 325.526 357.586 326.018 356.11 327.002C354.634 327.986 353.759 329.325 353.486 331.02H343.482C343.974 326.756 345.887 323.367 349.222 320.852C352.556 318.337 356.82 317.08 362.014 317.08C367.535 317.08 371.881 318.474 375.052 321.262C378.277 323.995 379.89 327.713 379.89 332.414V363H369.968V355.128H369.769C369.33 357.444 368.166 359.357 366.278 360.868C363.818 362.836 360.538 363.82 356.438 363.82ZM359.8 356.112C362.697 356.112 365.048 355.374 366.852 353.898C368.71 352.422 369.64 350.509 369.64 348.158V342.664H358.57C356.492 342.664 354.825 343.265 353.568 344.468C352.31 345.671 351.682 347.256 351.682 349.224C351.682 351.356 352.392 353.051 353.814 354.308C355.29 355.511 357.285 356.112 359.8 356.112ZM302.35 361.606C305.193 363.082 308.527 363.82 312.354 363.82C317.165 363.82 321.237 362.672 324.572 360.376C327.961 358.025 330.039 354.909 330.804 351.028H320.718C320.335 352.559 319.433 353.734 318.012 354.554C316.591 355.319 314.732 355.702 312.436 355.702C309.429 355.702 307.161 354.909 305.63 353.324C304.099 351.684 303.334 349.279 303.334 346.108V342.91H331.132V334.792C331.132 331.239 330.339 328.15 328.754 325.526C327.223 322.847 325.037 320.77 322.194 319.294C319.406 317.818 316.126 317.08 312.354 317.08C308.527 317.08 305.193 317.818 302.35 319.294C299.507 320.77 297.293 322.847 295.708 325.526C294.177 328.15 293.412 331.239 293.412 334.792V346.108C293.412 349.661 294.177 352.777 295.708 355.456C297.293 358.08 299.507 360.13 302.35 361.606ZM321.21 336.356V334.71C321.21 331.594 320.472 329.216 318.996 327.576C317.52 325.881 315.306 325.034 312.354 325.034C309.402 325.034 307.161 325.881 305.63 327.576C304.099 329.271 303.334 331.676 303.334 334.792V336.514L321.21 336.356ZM169.688 363C165.369 363 161.98 361.797 159.52 359.392C157.115 356.987 155.912 353.679 155.912 349.47V327.166H143.694V317.9H155.912V305.19H166.244V317.9H183.546V327.166H166.244V349.47C166.244 352.313 167.638 353.734 170.426 353.734H182.726V363H169.688ZM108.958 303.14L93.87 363H104.366L107.646 348.486H123.554L126.834 363H137.33L122.16 303.14H108.958ZM121.668 340.122H109.532L113.14 323.968C113.796 321.344 114.315 318.966 114.698 316.834C115.135 314.647 115.436 313.062 115.6 312.078C115.764 313.062 116.065 314.647 116.502 316.834C116.939 318.966 117.459 321.371 118.06 324.05L121.668 340.122Z" fill="#027DFC"/>
<path fill-rule="evenodd" clip-rule="evenodd" d="M277.647 146H246.603L199 235.373L218.868 256.7L238.633 259.156L283.847 172.175L292.278 178.161C293.049 178.708 294.096 178.641 294.791 178.001C295.486 177.361 295.638 176.322 295.156 175.51L277.647 146ZM203.872 234.735L249.005 150H275.369L286.903 169.439L282.417 166.254L236.367 254.844L220.804 252.91L203.872 234.735ZM298.196 183.012C297.83 182.367 297.137 181.978 296.396 182.001C295.655 182.024 294.987 182.455 294.661 183.121L283.693 205.527C283.401 206.125 283.425 206.83 283.758 207.407L299.572 234.762H270.135C269.421 234.762 268.761 235.143 268.403 235.761L256.705 255.999C256.347 256.618 256.347 257.38 256.704 258C257.061 258.619 257.721 259 258.436 259H314.737C315.452 259 316.112 258.619 316.469 258C316.827 257.38 316.826 256.618 316.469 255.999L306.504 238.762H326.436C327.148 238.762 327.806 238.384 328.165 237.768C328.523 237.153 328.527 236.393 328.175 235.774L298.196 183.012ZM322.999 234.762H304.192L287.755 206.328L296.589 188.28L322.999 234.762ZM271.289 238.762H301.884L311.271 255H261.902L271.289 238.762Z" fill="#027DFC"/>
</svg>
